# AST/ASF file generated using VICON BodyLanguage
# -----------------------------------------------
:version 1.10
:name VICON
:units
  mass 1.0
  length 0.45
  angle deg
:documentation
   .ast/.asf automatically generated from VICON data using
   VICON BodyBuilder and BodyLanguage model FoxedUp or BRILLIANT.MOD
:root
   order TX TY TZ RX RY RZ
   axis XYZ
   position 0 0 0  
   orientation 0 0 0 
:bonedata
  begin
     id 1 
     name lhipjoint
     direction 0.662698 -0.695252 0.27831 
     length 2.53073 
     axis 0 0 0  XYZ
  end
  begin
     id 2 
     name lfemur
     direction 0.34202 -0.939693 0  
     length 7.16147  
     axis 0 0 20  XYZ
    dof rx ry rz
    limits (-160.0 20.0)
           (-70.0 70.0)
           (-60.0 70.0)
  end
  begin
     id 3 
     name ltibia
     direction 0.34202 -0.939693 0   
     length 7.63967   
     axis 0 0 20   XYZ
    dof rx
    limits (-10.0 170.0)
  end
  begin
     id 4 
     name lfoot
     direction 0.0938457 -0.257721 0.961651   
     length 1.89793   
     axis -90 7.62852e-016 20   XYZ
    dof rx rz
    limits (-45.0 90.0)
           (-70.0 20.0)
  end
  begin
     id 5 
     name ltoes
     direction -0.00116841 -0.0030592 0.999995   
     length 0.955649   
     axis -90 7.62852e-016 20   XYZ
    dof rx
    limits (-90.0 20.0)
  end
  begin
     id 6 
     name rhipjoint
     direction -0.649445 -0.705948 0.282592   
     length 2.49238  
     axis 0 0 0  XYZ 
  end
  begin
     id 7 
     name rfemur
     direction -0.34202 -0.939693 0   
     length 6.90728   
     axis 0 0 -20   XYZ
    dof rx ry rz
    limits (-160.0 20.0)
           (-70.0 70.0)
           (-70.0 60.0)
  end
  begin
     id 8 
     name rtibia
     direction -0.34202 -0.939693 0   
     length 7.72868   
     axis 0 0 -20   XYZ
    dof rx
    limits (-10.0 170.0)
 end
 begin
     id 9 
     name rfoot
     direction -0.0920068 -0.252865 0.963117   
     length 1.97476  
     axis -90 -7.62852e-016 -20   XYZ
    dof rx rz
    limits (-45.0 90.0)
           (-20.0 70.0)
  end
  begin
     id 10 
     name rtoes
     direction 0.000391322 0.00230649 0.999997   
     length 0.992641   
     axis -90 -7.62852e-016 -20   XYZ
    dof rx
    limits (-90.0 20.0)
  end
  begin
     id 11 
     name lowerback
     direction -0.00875327 0.998321 -0.0572635   
     length 2.20024   
     axis 0 0 0   XYZ
    dof rx ry rz
    limits (-20.0 45.0)
           (-30.0 30.0)
           (-30.0 30.0)
  end
  begin
     id 12 
     name upperback
     direction 0.00753931 0.999972 -0.000360425   
     length 2.20538   
     axis 0 0 0   XYZ
    dof rx ry rz
    limits (-20.0 45.0)
           (-30.0 30.0)
           (-30.0 30.0)
  end
  begin
     id 13 
     name thorax
     direction 0.0117767 0.999601 0.0256663   
     length 2.21508   
     axis 0 0 0   XYZ
    dof rx ry rz
    limits (-20.0 45.0)
           (-30.0 30.0)
           (-30.0 30.0)
  end
  begin
     id 14 
     name lowerneck
     direction 0.060228 0.994909 0.0807986   
     length 1.7607   
     axis 0 0 0   XYZ
    dof rx ry rz
    limits (-20.0 45.0)
           (-30.0 30.0)
           (-30.0 30.0)
  end
  begin
     id 15 
     name upperneck
     direction -0.0563647 0.959594 -0.275685   
     length 1.75612   
     axis 0 0 0   XYZ
    dof rx ry rz
    limits (-20.0 45.0)
           (-30.0 30.0)
           (-30.0 30.0)
  end
  begin
     id 16
     name head
     direction -0.0161544 0.99458 -0.102714  
     length 1.79288  
     axis 0 0 0   XYZ
    dof rx ry rz
    limits (-20.0 45.0)
           (-30.0 30.0)
           (-30.0 30.0)
  end
  begin
     id 17 
     name lclavicle
     direction 0.93913 0.332189 -0.087669  
     length 3.52087  
     axis 0 0 0   XYZ
    dof ry rz
    limits (-20.0 10.0)
           (0.0 20.0)
  end
  begin
     id 18 
     name lhumerus
     direction 1 -4.48974e-011 -2.70836e-027   
     length 5.35289   
     axis -180 -30 -90   XYZ
    dof rx ry rz
    limits (-60.0 90.0)
           (-90.0 90.0)
           (-90.0 90.0)
  end
  begin
     id 19
     name lradius
     direction 1 -4.48961e-011 -9.76021e-027   
     length 3.27727   
     axis -180 -30 -90   XYZ
    dof rx
    limits (-10.0 170.0)
  end
  begin
     id 20
     name lwrist
     direction 1 -4.49103e-011 -2.23668e-026   
     length 1.63864   
     axis 1.44924e-014 90 90   XYZ
    dof ry
    limits (-180.0 0.0)
 end
  begin
     id 21 
     name lhand
     direction 1 3.0697e-005 0.000161777   
     length 0.54443   
     axis 2.85318e-014 90 90   XYZ
    dof rx rz
    limits (-90.0 90.0)
           (-45.0 45.0)
  end
  begin
     id 22 
     name lfingers
     direction 1 -4.49027e-011 -8.9447e-026   
     length 0.438912   
     axis 5.70628e-014 90 90   XYZ
    dof rx
    limits (0.0 90.0)
  end
  begin
     id 23
     name lthumb
     direction 0.707058 2.6516e-005 0.707156   
     length 0.630274   
     axis -90 45 -3.53137e-014   XYZ
    dof rx rz
    limits (-45.0 45.0)
           (-45.0 45.0)
  end
  begin
     id 24 
     name rclavicle
     direction -0.95274 0.284984 -0.105215   
     length 3.43401  
     axis 0 0 0   XYZ 
    dof ry rz
    limits (-10.0 20.0)
           (-20.0 0.0)
  end
  begin
     id 25 
     name rhumerus
     direction -0.999999 -0.000575019 -0.00106829  
     length 5.52077   
     axis -180 30 90   XYZ
    dof rx ry rz
    limits (-90.0 60.0)
           (-90.0 90.0)
           (-90.0 90.0)
  end
  begin
     id 26 
     name rradius
     direction -1 -4.4879e-011 -6.35415e-027   
     length 3.32364   
     axis -180 30 90   XYZ
    dof rx
    limits (-10.0 170.0)
  end
  begin
     id 27 
     name rwrist
     direction -1 -4.49048e-011 -9.98542e-027   
     length 1.66182   
     axis 6.32482e-015 -90 -90   XYZ
    dof ry
    limits (-180.0 0.0)
  end
  begin
     id 28
     name rhand
     direction -1 -4.48978e-011 -1.99771e-026   
     length 0.732235   
     axis 1.27479e-014 -90 -90   XYZ
    dof rx rz
    limits (-90.0 90.0)
           (-45.0 45.0)
  end
  begin
     id 29
     name rfingers
     direction -1 -4.49144e-011 -3.99245e-026   
     length 0.590347   
     axis 2.5496e-014 -90 -90   XYZ
    dof rx
    limits (0.0 90.0)
  end
  begin
     id 30
     name rthumb
     direction -0.707107 -6.35121e-011 0.707107   
     length 0.847624   
     axis -90 -45 -2.82974e-014   XYZ
    dof rx rz
    limits (-45.0 45.0)
           (-45.0 45.0)
  end
:hierarchy
  begin
    root lhipjoint rhipjoint lowerback
    lhipjoint lfemur
    lfemur ltibia
    ltibia lfoot
    lfoot ltoes
    rhipjoint rfemur
    rfemur rtibia
    rtibia rfoot
    rfoot rtoes
    lowerback upperback
    upperback thorax
    thorax lowerneck lclavicle rclavicle
    lowerneck upperneck
    upperneck head
    lclavicle lhumerus
    lhumerus lradius
    lradius lwrist
    lwrist lhand lthumb
    lhand lfingers
    rclavicle rhumerus
    rhumerus rradius
    rradius rwrist
    rwrist rhand rthumb
    rhand rfingers
  end

#!OML:ASF G:\Work\Work\Patient Classification 1\Elijah\terrain1\Elijah.ASF
:FULLY-SPECIFIED
:DEGREES
3247
root 8.48668 18.9549 32.6245 290.888 -88.5224 -283.362
lowerback 10.9876 0.127503 -1.03032
upperback 3.36008 -0.000149286 2.07886
thorax -2.65552 -0.0582078 2.74373
lowerneck -16.6455 -1.6488 0.79138
upperneck 34.8081 -5.03666 2.79931
head 14.9627 -2.00481 0.0490449
rclavicle -9.93923e-016 3.97569e-015
rhumerus -38.2722 7.00766 -80.0481
rradius 40.7766
rwrist -8.4479
rhand -18.03 25.4336
rfingers 7.12502
rthumb 8.24134 -4.38571
lclavicle -9.93923e-016 3.97569e-015
lhumerus -39.8547 0.338481 87.3312
lradius 33.156
lwrist 0.154159
lhand -11.2464 24.8589
lfingers 7.12502
lthumb 14.7831 54.3117
rfemur -35.4992 -4.50226 28.4727
rtibia 47.1318
rfoot -20.8321 -6.57086
rtoes 1.04531
lfemur -38.0187 1.40197 -21.2214
ltibia 83.572
lfoot -4.07419 -7.68149
ltoes -12.4378
3248
root 8.41606 18.9789 32.6473 253.64 -88.7481 -246.201
lowerback 11.1587 -0.266094 -1.58096
upperback 3.2965 -0.565459 2.8854
thorax -2.76861 -0.343189 3.97846
lowerneck -16.4135 -1.11291 -0.319981
upperneck 34.7939 -3.77567 2.54734
head 14.8892 -1.6643 0.3607
rclavicle -1.11319e-014 7.95139e-016
rhumerus -38.2011 9.29217 -79.5512
rradius 41.101
rwrist -8.26351
rhand -18.5667 25.1625
rfingers 7.12502
rthumb 7.72335 -4.67645
lclavicle -1.11319e-014 7.95139e-016
lhumerus -40.3263 2.90843 87.4453
lradius 32.7583
lwrist -0.22838
lhand -11.4338 25.1858
lfingers 7.12502
lthumb 14.6025 54.6517
rfemur -34.8147 -3.65646 28.5937
rtibia 46.6465
rfoot -20.6177 -6.80105
rtoes 0.217219
lfemur -38.8088 0.792938 -20.7319
ltibia 83.3489
lfoot -4.72181 -7.63057
ltoes -12.5322
3249
root 8.34356 18.995 32.6692 222.119 -88.3254 -214.803
lowerback 11.3229 -0.423556 -1.90508
upperback 3.324 -0.809339 3.2291
thorax -2.79966 -0.468915 4.56109
lowerneck -16.3696 -0.704556 -0.49051
upperneck 34.704 -3.05019 2.39723
head 14.8184 -1.40476 0.453721
rclavicle 2.38542e-015 -2.38542e-015
rhumerus -38.1492 10.6406 -79.4954
rradius 41.3257
rwrist -8.27074
rhand -18.7176 24.9834
rfingers 7.12502
rthumb 7.57773 -4.86082
lclavicle 2.38542e-015 -2.38542e-015
lhumerus -40.573 4.7428 86.9975
lradius 32.2839
lwrist -1.17756
lhand -11.0811 25.0118
lfingers 7.12502
lthumb 14.9424 54.4528
rfemur -34.1365 -3.11704 28.7893
rtibia 46.182
rfoot -19.9232 -8.02598
rtoes -6.18135
lfemur -39.4761 0.195355 -20.3536
ltibia 82.9429
lfoot -5.41382 -7.48956
ltoes -13.6745
3250
root 8.27051 19.0351 32.6903 208.325 -87.5894 -201.117
lowerback 11.423 -0.0950464 -1.50028
upperback 3.39237 -0.340747 2.92542
thorax -2.83191 -0.236398 3.94818
lowerneck -16.8846 -1.12513 -0.21601
upperneck 34.8613 -3.87498 2.63031
head 15.0336 -1.67583 0.353538
rclavicle 3.97569e-016 1.74931e-014
rhumerus -38.0137 9.16098 -79.5792
rradius 40.9581
rwrist -7.95354
rhand -18.586 25.1931
rfingers 7.12502
rthumb 7.7048 -4.64655
lclavicle 3.97569e-016 1.74931e-014
lhumerus -40.5581 4.50762 86.5049
lradius 31.8039
lwrist -2.10503
lhand -10.5738 24.5681
lfingers 7.12502
lthumb 15.431 53.9722
rfemur -33.5142 -3.10148 28.522
rtibia 45.8343
rfoot -20.4771 -5.44154
rtoes -1.50923
lfemur -39.9732 -0.401008 -20.0746
ltibia 82.2182
lfoot -6.28771 -7.17203
ltoes -14.5473
3251
root 8.19765 19.0595 32.7146 202.011 -86.7507 -194.837
lowerback 11.4188 0.549097 -0.625421
upperback 3.44015 0.591557 2.23278
thorax -2.8385 0.228961 2.59756
lowerneck -17.236 -1.67705 0.679585
upperneck 34.8533 -5.14226 2.97891
head 15.1344 -2.03264 0.113383
rclavicle 6.16232e-015 5.56597e-015
rhumerus -38.1949 5.79503 -79.6504
rradius 40.5714
rwrist -7.15177
rhand -18.6453 25.5385
rfingers 7.12502
rthumb 7.64748 -4.30322
lclavicle 6.16232e-015 5.56597e-015
lhumerus -40.339 2.58309 86.1928
lradius 31.3621
lwrist -2.52702
lhand -10.5684 24.4719
lfingers 7.12502
lthumb 15.4362 53.8756
rfemur -33.0014 -2.42567 28.3673
rtibia 45.5104
rfoot -18.9213 -6.29445
rtoes -11.1334
lfemur -40.5399 -1.03784 -19.8362
ltibia 81.379
lfoot -7.33625 -6.63965
ltoes -15.7586
3252
root 8.12203 19.0961 32.7376 200.036 -85.875 -192.866
lowerback 11.3519 0.973949 -0.0125814
upperback 3.4604 1.2049 1.61941
thorax -2.78571 0.535528 1.52864
lowerneck -17.3676 -1.83891 1.54309
upperneck 34.7994 -5.76787 3.19373
head 15.1403 -2.15003 -0.0613027
rclavicle -3.57812e-015 3.97569e-015
rhumerus -38.5139 3.80185 -79.888
rradius 40.4588
rwrist -6.3542
rhand -18.6629 25.8763
rfingers 7.12502
rthumb 7.63058 -3.96601
lclavicle -3.57812e-015 3.97569e-015
lhumerus -40.2237 0.973339 85.7995
lradius 31.0383
lwrist -2.51328
lhand -10.6071 24.6454
lfingers 7.12502
lthumb 15.399 54.0519
rfemur -32.4824 -1.2034 27.7627
rtibia 45.2064
rfoot -20.3535 -4.09171
rtoes 2.36103
lfemur -40.9605 -1.75408 -19.712
ltibia 80.2769
lfoot -8.93339 -5.14637
ltoes -20.6022
3253
root 8.047 19.1138 32.7659 199.772 -84.99 -192.611
lowerback 11.3329 0.908718 -0.330933
upperback 3.42891 1.08736 1.74548
thorax -2.81326 0.477324 1.85544
lowerneck -17.4885 -1.80217 0.965531
upperneck 34.8957 -5.5592 3.25684
head 15.2287 -2.12914 0.0994741
rclavicle 3.97569e-016 1.66979e-014
rhumerus -38.5328 4.46958 -79.7862
rradius 40.3779
rwrist -5.98853
rhand -18.4965 26.0998
rfingers 7.12502
rthumb 7.79117 -3.73665
lclavicle 3.97569e-016 1.66979e-014
lhumerus -40.4793 1.75153 85.6466
lradius 30.7702
lwrist -2.66076
lhand -10.5787 24.75
lfingers 7.12502
lthumb 15.4263 54.1543
rfemur -31.9823 -0.72238 27.4532
rtibia 44.8593
rfoot -20.5121 -4.06641
rtoes 2.40916
lfemur -41.3633 -2.57017 -19.6656
ltibia 79.0797
lfoot -9.25601 -5.6706
ltoes -17.2436
3254
root 7.97044 19.1046 32.7922 200.283 -84.0431 -193.133
lowerback 11.3461 0.832692 -0.915626
upperback 3.35398 0.930856 1.96479
thorax -2.90566 0.401557 2.43544
lowerneck -17.445 -1.68733 0.278617
upperneck 34.9385 -5.1776 3.29808
head 15.2492 -2.05916 0.304772
rclavicle 1.78906e-015 2.06736e-014
rhumerus -38.5982 5.70643 -79.4838
rradius 40.4619
rwrist -6.54171
rhand -18.4134 25.7357
rfingers 7.12502
rthumb 7.87134 -4.09781
lclavicle 1.78906e-015 2.06736e-014
lhumerus -40.7999 2.93564 85.5016
lradius 30.4561
lwrist -2.92135
lhand -10.6233 24.7234
lfingers 7.12502
lthumb 15.3834 54.1311
rfemur -31.5155 -0.973647 27.5088
rtibia 44.4827
rfoot -19.6873 -6.43679
rtoes -9.85177
lfemur -41.7947 -3.33949 -19.6465
ltibia 77.817
lfoot -9.81099 -6.00502
ltoes -15.1494
3255
root 7.891 19.1315 32.8094 199.245 -83.0949 -192.129
lowerback 11.3148 1.04693 -0.749756
upperback 3.32509 1.22672 1.69716
thorax -2.92407 0.549968 2.02206
lowerneck -17.4877 -1.79549 0.271318
upperneck 34.9581 -5.49028 3.65203
head 15.2943 -2.14469 0.396167
rclavicle 8.94531e-015 -6.36111e-015
rhumerus -38.9961 7.15539 -80.0843
rradius 40.8613
rwrist -8.71751
rhand -18.5921 24.9263
rfingers 7.12502
rthumb 7.69885 -4.91356
lclavicle 8.94531e-015 -6.36111e-015
lhumerus -40.8035 2.58694 85.0757
lradius 30.1016
lwrist -2.92237
lhand -10.5857 24.7116
lfingers 7.12502
lthumb 15.4196 54.1165
rfemur -30.9805 -0.0686668 27.0811
rtibia 44.1517
rfoot -19.9992 -5.56287
rtoes -6.92051
lfemur -41.9647 -3.99357 -19.4084
ltibia 76.2264
lfoot -10.3554 -6.31205
ltoes -14.0836
3256
root 7.80846 19.1521 32.8257 197.993 -82.1998 -190.926
lowerback 11.2312 1.34295 -0.304865
upperback 3.35387 1.65367 1.26687
thorax -2.84067 0.761683 1.26684
lowerneck -17.6418 -1.95503 0.720108
upperneck 34.9372 -5.96859 3.84332
head 15.3318 -2.25717 0.308368
rclavicle 1.76918e-014 7.15625e-015
rhumerus -39.228 5.70679 -80.2228
rradius 40.8827
rwrist -8.43592
rhand -18.3635 25.0013
rfingers 7.12502
rthumb 7.9195 -4.83038
lclavicle 1.76918e-014 7.15625e-015
lhumerus -40.6193 1.6391 84.622
lradius 29.7905
lwrist -2.72632
lhand -10.661 24.7541
lfingers 7.12502
lthumb 15.3471 54.1645
rfemur -30.3954 0.30457 26.8035
rtibia 43.8001
rfoot -20.3354 -3.99428
rtoes -3.60288
lfemur -42.0713 -4.71313 -19.064
ltibia 74.5239
lfoot -10.8569 -6.69625
ltoes -14.5217
3257
root 7.72304 19.1756 32.8394 197.438 -81.3035 -190.436
lowerback 11.1525 1.77684 0.16976
upperback 3.38583 2.26061 0.689853
thorax -2.73737 1.06378 0.322417
lowerneck -17.8653 -2.25667 1.49582
upperneck 34.9021 -6.75405 3.97191
head 15.372 -2.46124 0.080099
rclavicle -2.06736e-014 1.90833e-014
rhumerus -39.5363 3.20265 -80.284
rradius 40.6004
rwrist -7.7633
rhand -18.5178 25.6822
rfingers 7.12502
rthumb 7.77056 -4.15502
lclavicle -2.06736e-014 1.90833e-014
lhumerus -40.328 0.0397273 84.2269
lradius 29.4776
lwrist -2.53311
lhand -11.0074 24.8805
lfingers 7.12502
lthumb 15.0134 54.3162
rfemur -29.8094 0.369672 26.5551
rtibia 43.4635
rfoot -20.646 -2.4108
rtoes -1.33993
lfemur -42.0386 -5.49495 -18.7424
ltibia 72.6416
lfoot -11.4662 -7.17647
ltoes -15.2186
3258
root 7.63902 19.1855 32.8527 196.073 -80.3838 -189.137
lowerback 11.1028 1.69152 -0.196751
upperback 3.36841 2.11771 1.02552
thorax -2.75375 0.991931 0.89627
lowerneck -17.8793 -2.08467 0.769647
upperneck 35.0639 -6.28638 4.00838
head 15.4659 -2.35854 0.30525
rclavicle 2.22639e-014 -1.19271e-014
rhumerus -39.5792 4.66115 -80.3053
rradius 40.5473
rwrist -8.26535
rhand -18.7933 25.0523
rfingers 7.12502
rthumb 7.50468 -4.79454
lclavicle 2.22639e-014 -1.19271e-014
lhumerus -40.6395 1.22807 84.1869
lradius 29.2897
lwrist -2.75064
lhand -11.3118 25.1165
lfingers 7.12502
lthumb 14.7201 54.5739
rfemur -29.1829 0.38909 26.5658
rtibia 43.0031
rfoot -20.683 -1.75759
rtoes -1.5872
lfemur -41.9837 -6.1935 -18.2634
ltibia 70.6819
lfoot -12.0775 -7.64905
ltoes -15.5696
3259
root 7.5554 19.1925 32.8664 194.293 -79.4769 -187.395
lowerback 11.1431 2.13393 0.471774
upperback 3.30864 2.76442 0.5895
thorax -2.79563 1.3138 -0.0190666
lowerneck -18.0112 -2.44938 1.17523
upperneck 35.0355 -7.15727 4.4208
head 15.5211 -2.61097 0.244532
rclavicle -6.55989e-015 -1.11319e-014
rhumerus -40.072 3.54927 -80.6809
rradius 40.5153
rwrist -8.87858
rhand -18.6707 24.8601
rfingers 7.12502
rthumb 7.62296 -4.98252
lclavicle -6.55989e-015 -1.11319e-014
lhumerus -40.5497 -0.641519 84.0184
lradius 29.1498
lwrist -2.21101
lhand -11.355 25.29
lfingers 7.12502
lthumb 14.6785 54.7505
rfemur -28.5742 0.352235 26.7083
rtibia 42.5133
rfoot -20.6474 -1.24963
rtoes -2.29175
lfemur -41.92 -6.88911 -17.6139
ltibia 68.6209
lfoot -12.577 -8.27135
ltoes -16.4729
